<svg xmlns="http://www.w3.org/2000/svg" version="1.1" xmlns:xlink="http://www.w3.org/1999/xlink" xmlns:svgjs="http://svgjs.dev/svgjs" width="1000" height="623" viewBox="0 0 1000 623"><g transform="matrix(1,0,0,1,-0.6060606060606233,0.2522267206477409)"><svg viewBox="0 0 396 247" data-background-color="#ffffff" preserveAspectRatio="xMidYMid meet" height="623" width="1000" xmlns="http://www.w3.org/2000/svg" xmlns:xlink="http://www.w3.org/1999/xlink"><g id="tight-bounds" transform="matrix(1,0,0,1,0.2400000000000091,-0.09999999999999432)"><svg viewBox="0 0 395.52 247.2" height="247.2" width="395.52"><g><svg></svg></g><g><svg viewBox="0 0 395.52 247.2" height="247.2" width="395.52"><g><g><path d="M89.097 32.127c-18.622 0-33.602 8.186-44.939 24.556-1.879 2.703-3.603 5.572-5.171 8.605l-24.555 0c3.123-5.521 6.79-10.6 11.002-15.235 16.248-17.885 37.469-26.828 63.663-26.828 13.302 0 26.603 3.377 39.904 10.129 4.297 2.251 7.367 3.377 9.209 3.377 3.07 0 4.707-2.149 4.911-6.446l0.307-5.218h5.833l0 40.221-8.213 0c-2.976-9.381-7.953-16.711-14.932-21.988-9.945-7.449-22.285-11.173-37.019-11.173zM44.281 190.824c11.46 16.166 25.846 24.25 43.158 24.249 17.271 0 29.345-4.461 36.221-13.383 3.986-5.18 6.81-11.772 8.472-19.778h23.726c-3.156 9.284-8.63 17.432-16.42 24.444-13.097 11.746-29.877 17.619-50.341 17.619-25.784 0-46.903-8.902-63.356-26.705-4.317-4.659-8.068-9.779-11.256-15.358l24.379 0c1.635 3.153 3.441 6.123 5.417 8.912zM201.137 210.469l0-28.557 25.17 0v28.557c0 2.865 1.432 4.297 4.297 4.297h14.428v5.526h-62.62v-5.526h14.427c2.865 0 4.297-1.432 4.298-4.297zM201.137 36.117c0-2.456-1.432-3.683-4.298-3.683h-14.427v-5.526h62.62v5.526h-14.428c-2.865 0-4.297 1.228-4.297 3.683l0 29.171-25.17 0zM266.519 220.292v-5.526h14.427c2.865 0 4.297-1.432 4.297-4.297l0-28.557h25.171v29.785h61.084c5.321 0 8.186-2.251 8.595-6.753l2.953-23.032h8.711v1.545c0 18.008 0.921 31.207 2.763 39.597-6.548-1.842-17.906-2.763-34.072-2.762zM285.243 36.117c0-2.456-1.432-3.683-4.297-3.683h-14.427v-5.526h62.619v5.526h-14.427c-2.865 0-4.297 1.228-4.297 3.683l0 29.171-25.171 0z" fill="#4790fc" fill-rule="nonzero" stroke="none" stroke-width="1" stroke-linecap="butt" stroke-linejoin="miter" stroke-miterlimit="10" stroke-dasharray="" stroke-dashoffset="0" font-family="none" font-weight="none" font-size="none" text-anchor="none" style="mix-blend-mode: normal" data-fill-palette-color="tertiary"></path></g></g><g transform="matrix(1,0,0,1,0,71.79661529799921)"><svg viewBox="0 0 395.52 103.60676940400155" height="103.60676940400155" width="395.52"><g><svg viewBox="0 0 666.0613457070692 174.47528381268023" height="103.60676940400155" width="395.52"><g><rect width="4.187243719605558" height="174.47528381268023" x="255.39273099373182" y="0" fill="#ffffff" opacity="1" stroke-width="0" stroke="transparent" fill-opacity="1" class="rect-r$-0" data-fill-palette-color="primary" rx="1%" id="r$-0" data-palette-color="#ffffff"></rect></g><g transform="matrix(1,0,0,1,270.5413457070692,0.43401811893700426)"><svg viewBox="0 0 395.52 173.60724757480622" height="173.60724757480622" width="395.52"><g id="textblocktransform"><svg viewBox="0 0 395.52 173.60724757480622" height="173.60724757480622" width="395.52" id="textblock"><g><svg viewBox="0 0 395.52 152.07392568659128" height="152.07392568659128" width="395.52"><g transform="matrix(1,0,0,1,0,0)"><svg width="395.52" viewBox="1.7499999999999996 -32.099999999999994 278.5499999999999 103.95" height="152.07392568659128" data-palette-color="#ffffff"><svg></svg><svg></svg><svg></svg><g class="wordmark-text-0" data-fill-palette-color="primary" id="text-0"><path d="M16.1-30.65v0c-3.033 0-5.473 1.333-7.32 4-1.853 2.667-2.78 6.317-2.78 10.95 0 4.633 0.933 8.267 2.8 10.9 1.867 2.633 4.21 3.95 7.03 3.95 2.813 0 4.78-0.727 5.9-2.18 1.113-1.447 1.67-3.57 1.67-6.37v0-2c0-0.4-0.233-0.6-0.7-0.6v0h-3.35v-0.9h10.2v0.9h-1.35c-0.467 0-0.7 0.2-0.7 0.6v0 1.8c0 2.967-1.067 5.41-3.2 7.33-2.133 1.913-4.867 2.87-8.2 2.87v0c-4.2 0-7.64-1.45-10.32-4.35-2.687-2.9-4.03-6.893-4.03-11.98 0-5.08 1.327-9.08 3.98-12 2.647-2.913 6.103-4.37 10.37-4.37v0c2.167 0 4.333 0.55 6.5 1.65v0c0.7 0.367 1.2 0.55 1.5 0.55v0c0.5 0 0.767-0.35 0.8-1.05v0l0.05-0.85h0.95v8.65h-0.9c-0.3-2.567-1.257-4.46-2.87-5.68-1.62-1.213-3.63-1.82-6.03-1.82zM51.2-31.5h7.8v0.9h-2.35c-0.467 0-0.7 0.2-0.7 0.6v0 20.25c0 3.467-1 6.057-3 7.77-2 1.72-4.683 2.58-8.05 2.58-3.367 0-6.05-0.86-8.05-2.58-2-1.713-3-4.303-3-7.77v0-20.25c0-0.4-0.233-0.6-0.7-0.6v0h-2.35v-0.9h10.2v0.9h-2.35c-0.467 0-0.7 0.2-0.7 0.6v0 20.6c0 2.8 0.693 4.873 2.08 6.22 1.38 1.353 3.26 2.03 5.64 2.03 2.387 0 4.413-0.677 6.08-2.03 1.667-1.347 2.5-3.537 2.5-6.57v0-20.25c0-0.4-0.233-0.6-0.7-0.6v0h-2.35zM83.9-1.05v0c0.5 0 0.91-0.21 1.23-0.63 0.313-0.413 0.47-0.913 0.47-1.5 0-0.58-0.05-1.12-0.15-1.62v0l0.95-0.15c0.133 0.5 0.2 1.05 0.2 1.65v0c0 1.2-0.357 2.15-1.07 2.85-0.72 0.7-1.647 1.05-2.78 1.05v0c-2.833 0-4.25-1.717-4.25-5.15 0-3.433-0.433-5.96-1.3-7.58-0.867-1.613-2.633-2.42-5.3-2.42v0h-3.25v12.95c0 0.467 0.233 0.7 0.7 0.7v0h3.35v0.9h-11.2v-0.9h2.35c0.467 0 0.7-0.233 0.7-0.7v0-28.4c0-0.4-0.233-0.6-0.7-0.6v0h-2.35v-0.9h12.45c2.8 0 5.183 0.767 7.15 2.3 1.967 1.533 2.95 3.583 2.95 6.15v0c0 2.067-0.64 3.81-1.92 5.23-1.287 1.413-2.98 2.387-5.08 2.92v0c2.367 0.8 3.867 2.233 4.5 4.3v0c0.5 1.7 0.75 3.717 0.75 6.05 0 2.333 0.533 3.5 1.6 3.5zM73.7-30.1v0h-5.05v14.1h5.05c2 0 3.56-0.7 4.68-2.1 1.113-1.4 1.67-3.05 1.67-4.95 0-1.9-0.557-3.55-1.67-4.95-1.12-1.4-2.68-2.1-4.68-2.1zM107.9-31.5h7.8v0.9h-2.35c-0.467 0-0.7 0.2-0.7 0.6v0 20.25c0 3.467-1 6.057-3 7.77-2 1.72-4.683 2.58-8.05 2.58-3.367 0-6.05-0.86-8.05-2.58-2-1.713-3-4.303-3-7.77v0-20.25c0-0.4-0.233-0.6-0.7-0.6v0h-2.35v-0.9h10.2v0.9h-2.35c-0.467 0-0.7 0.2-0.7 0.6v0 20.6c0 2.8 0.69 4.873 2.07 6.22 1.387 1.353 3.273 2.03 5.66 2.03 2.38 0 4.403-0.677 6.07-2.03 1.667-1.347 2.5-3.537 2.5-6.57v0-20.25c0-0.4-0.233-0.6-0.7-0.6v0h-2.35zM139.95-1.6v0-13.45h-14.6v13.45c0 0.467 0.233 0.7 0.7 0.7v0h2.35v0.9h-10.2v-0.9h2.35c0.467 0 0.7-0.233 0.7-0.7v0-28.4c0-0.4-0.233-0.6-0.7-0.6v0h-2.35v-0.9h10.2v0.9h-2.35c-0.467 0-0.7 0.233-0.7 0.7v0 13.45h14.6v-13.45c0-0.467-0.233-0.7-0.7-0.7v0h-2.35v-0.9h10.2v0.9h-2.35c-0.467 0-0.7 0.2-0.7 0.6v0 28.4c0 0.467 0.233 0.7 0.7 0.7v0h2.35v0.9h-10.2v-0.9h2.35c0.467 0 0.7-0.233 0.7-0.7zM170.5-31.5h7.8v0.9h-2.35c-0.467 0-0.7 0.2-0.7 0.6v0 20.25c0 3.467-1 6.057-3 7.77-2 1.72-4.683 2.58-8.05 2.58-3.367 0-6.05-0.86-8.05-2.58-2-1.713-3-4.303-3-7.77v0-20.25c0-0.4-0.233-0.6-0.7-0.6v0h-2.35v-0.9h10.2v0.9h-2.35c-0.467 0-0.7 0.2-0.7 0.6v0 20.6c0 2.8 0.69 4.873 2.07 6.22 1.387 1.353 3.27 2.03 5.65 2.03 2.387 0 4.413-0.677 6.08-2.03 1.667-1.347 2.5-3.537 2.5-6.57v0-20.25c0-0.4-0.233-0.6-0.7-0.6v0h-2.35zM193.75 0h-12.95v-0.9h2.35c0.467 0 0.7-0.2 0.7-0.6v0-28.5c0-0.4-0.233-0.6-0.7-0.6v0h-2.35v-0.9h11.7c2.5 0 4.643 0.683 6.43 2.05 1.78 1.367 2.67 3.133 2.67 5.3v0c0 1.667-0.44 3.123-1.32 4.37-0.887 1.253-2.063 2.197-3.53 2.83v0c2.1 0.467 3.81 1.417 5.13 2.85 1.313 1.433 1.97 3.34 1.97 5.72 0 2.387-0.983 4.38-2.95 5.98-1.967 1.6-4.35 2.4-7.15 2.4zM193.5-16.05v0h-5.55v14.65h5.55c2 0 3.56-0.733 4.68-2.2 1.113-1.467 1.67-3.183 1.67-5.15 0-1.967-0.557-3.677-1.67-5.13-1.12-1.447-2.68-2.17-4.68-2.17zM191.45-30.1v0h-3.5v12.8h3.8c1.967 0 3.433-0.667 4.4-2 0.967-1.333 1.45-2.893 1.45-4.68 0-1.78-0.5-3.247-1.5-4.4-1-1.147-2.55-1.72-4.65-1.72z" fill="#ffffff" fill-rule="nonzero" stroke="none" stroke-width="1" stroke-linecap="butt" stroke-linejoin="miter" stroke-miterlimit="10" stroke-dasharray="" stroke-dashoffset="0" font-family="none" font-weight="none" font-size="none" text-anchor="none" style="mix-blend-mode: normal" data-fill-palette-color="primary" opacity="1"></path><path transform="translate(0,35.7)" d="M4.8-1.6v0-28.4c0-0.4-0.233-0.6-0.7-0.6v0h-2.35v-0.9h10.2v0.9h-2.35c-0.467 0-0.7 0.2-0.7 0.6v0 28.4c0 0.467 0.233 0.7 0.7 0.7v0h2.35v0.9h-10.2v-0.9h2.35c0.467 0 0.7-0.233 0.7-0.7zM40.6 0h-1.6l-18.8-27.9v26.3c0 0.467 0.233 0.7 0.7 0.7v0h2.35v0.9h-7.8v-0.9h2.35c0.467 0 0.7-0.233 0.7-0.7v0-28.4c0-0.4-0.233-0.6-0.7-0.6v0h-2.35v-0.9h7.35l16.1 23.8v-22.2c0-0.467-0.233-0.7-0.7-0.7v0h-2.35v-0.9h7.8v0.9h-2.35c-0.467 0-0.7 0.2-0.7 0.6v0zM72.05 0h-1.6l-18.8-27.9v26.3c0 0.467 0.233 0.7 0.7 0.7v0h2.35v0.9h-7.8v-0.9h2.35c0.467 0 0.7-0.233 0.7-0.7v0-28.4c0-0.4-0.233-0.6-0.7-0.6v0h-2.35v-0.9h7.35l16.1 23.8v-22.2c0-0.467-0.233-0.7-0.7-0.7v0h-2.35v-0.9h7.8v0.9h-2.35c-0.467 0-0.7 0.2-0.7 0.6v0zM82.33-3.75c-2.653-2.9-3.98-6.9-3.98-12 0-5.1 1.327-9.1 3.98-12 2.647-2.9 6.097-4.35 10.35-4.35 4.247 0 7.697 1.45 10.35 4.35 2.647 2.9 3.97 6.9 3.97 12 0 5.1-1.323 9.1-3.97 12-2.653 2.9-6.103 4.35-10.35 4.35-4.253 0-7.703-1.45-10.35-4.35zM85.48-26.75c-1.92 2.7-2.88 6.367-2.88 11 0 4.633 0.96 8.3 2.88 11 1.913 2.7 4.303 4.05 7.17 4.05 2.867 0 5.267-1.35 7.2-4.05 1.933-2.7 2.9-6.367 2.9-11 0-4.633-0.967-8.3-2.9-11-1.933-2.7-4.333-4.05-7.2-4.05-2.867 0-5.257 1.35-7.17 4.05zM109-30.6v-0.9h9.5v0.9h-2.5l8.15 24.4 8.35-24.4h-2.5v-0.9h6.8v0.9h-1.85c-0.467 0-0.783 0.233-0.95 0.7v0l-10.25 29.9h-1.7l-10.25-29.9c-0.167-0.467-0.483-0.7-0.95-0.7v0zM161.85-0.9v0.9h-10.25v-0.9h3.25l-3.5-9.65h-11l-3.5 9.65h3.25v0.9h-7.55v-0.9h1.85c0.467 0 0.783-0.233 0.95-0.7v0l11-29.9h1.7l11 29.9c0.167 0.467 0.483 0.7 0.95 0.7v0zM150.85-11.95l-4.95-13.65-5 13.65zM181.1-30.1h-6.45v28.6c0 0.4 0.233 0.6 0.7 0.6v0h4.35v0.9h-14.2v-0.9h4.35c0.467 0 0.7-0.2 0.7-0.6v0-28.6h-6.45c-0.867 0-1.333 0.367-1.4 1.1v0l-0.75 5.85h-1.15v-2.35c0-2.933-0.15-5.083-0.45-6.45v0c1.067 0.3 2.917 0.45 5.55 0.45v0h13.4c2.633 0 4.483-0.15 5.55-0.45v0c-0.3 1.367-0.45 3.517-0.45 6.45v0 2.35h-1.15l-0.75-5.85c-0.067-0.733-0.533-1.1-1.4-1.1zM189.9-1.6v0-28.4c0-0.4-0.233-0.6-0.7-0.6v0h-2.35v-0.9h10.2v0.9h-2.35c-0.467 0-0.7 0.2-0.7 0.6v0 28.4c0 0.467 0.233 0.7 0.7 0.7v0h2.35v0.9h-10.2v-0.9h2.35c0.467 0 0.7-0.233 0.7-0.7zM204.53-3.75c-2.653-2.9-3.98-6.9-3.98-12 0-5.1 1.327-9.1 3.98-12 2.647-2.9 6.097-4.35 10.35-4.35 4.247 0 7.697 1.45 10.35 4.35 2.647 2.9 3.97 6.9 3.97 12 0 5.1-1.323 9.1-3.97 12-2.653 2.9-6.103 4.35-10.35 4.35-4.253 0-7.703-1.45-10.35-4.35zM207.68-26.75c-1.92 2.7-2.88 6.367-2.88 11 0 4.633 0.96 8.3 2.88 11 1.913 2.7 4.303 4.05 7.17 4.05 2.867 0 5.267-1.35 7.2-4.05 1.933-2.7 2.9-6.367 2.9-11 0-4.633-0.967-8.3-2.9-11-1.933-2.7-4.333-4.05-7.2-4.05-2.867 0-5.257 1.35-7.17 4.05zM255.1-1.05v0c0.5 0 0.91-0.21 1.23-0.63 0.313-0.413 0.47-0.913 0.47-1.5 0-0.58-0.05-1.12-0.15-1.62v0l0.95-0.15c0.133 0.5 0.2 1.05 0.2 1.65v0c0 1.2-0.357 2.15-1.07 2.85-0.72 0.7-1.647 1.05-2.78 1.05v0c-2.833 0-4.25-1.717-4.25-5.15 0-3.433-0.433-5.96-1.3-7.58-0.867-1.613-2.633-2.42-5.3-2.42v0h-3.25v12.95c0 0.467 0.233 0.7 0.7 0.7v0h3.35v0.9h-11.2v-0.9h2.35c0.467 0 0.7-0.233 0.7-0.7v0-28.4c0-0.4-0.233-0.6-0.7-0.6v0h-2.35v-0.9h12.45c2.8 0 5.183 0.767 7.15 2.3 1.967 1.533 2.95 3.583 2.95 6.15v0c0 2.067-0.64 3.81-1.92 5.23-1.287 1.413-2.98 2.387-5.08 2.92v0c2.367 0.8 3.867 2.233 4.5 4.3v0c0.5 1.7 0.75 3.717 0.75 6.05 0 2.333 0.533 3.5 1.6 3.5zM244.9-30.1v0h-5.05v14.1h5.05c2 0 3.56-0.7 4.68-2.1 1.113-1.4 1.67-3.05 1.67-4.95 0-1.9-0.557-3.55-1.67-4.95-1.12-1.4-2.68-2.1-4.68-2.1zM269.85 0.6v0c-2.2 0-4.4-0.6-6.6-1.8v0c-0.733-0.367-1.233-0.55-1.5-0.55v0c-0.5 0-0.767 0.35-0.8 1.05v0l-0.05 0.7h-0.95v-8.35h0.9c0.3 2.567 1.26 4.457 2.88 5.67 1.613 1.22 3.53 1.83 5.75 1.83 2.213 0 3.897-0.6 5.05-1.8 1.147-1.2 1.72-2.617 1.72-4.25v0c0-2.6-1.5-4.567-4.5-5.9v0l-5.95-2.65c-1.8-0.8-3.15-1.893-4.05-3.28-0.9-1.38-1.35-2.87-1.35-4.47v0c0-2.433 0.817-4.527 2.45-6.28 1.633-1.747 3.983-2.62 7.05-2.62v0c1.8 0 3.65 0.6 5.55 1.8v0c0.633 0.367 1.067 0.55 1.3 0.55v0c0.433 0 0.667-0.35 0.7-1.05v0l0.05-1h0.95v8.65h-0.9c-0.267-2.567-1.09-4.46-2.47-5.68-1.387-1.213-3.07-1.82-5.05-1.82-1.987 0-3.52 0.54-4.6 1.62-1.087 1.087-1.63 2.32-1.63 3.7 0 1.387 0.377 2.63 1.13 3.73 0.747 1.1 1.853 1.967 3.32 2.6v0l6 2.65c2 0.9 3.51 2.073 4.53 3.52 1.013 1.453 1.52 3.013 1.52 4.68v0c0 2.367-0.95 4.417-2.85 6.15-1.9 1.733-4.433 2.6-7.6 2.6z" fill="#ffffff" fill-rule="nonzero" stroke="none" stroke-width="1" stroke-linecap="butt" stroke-linejoin="miter" stroke-miterlimit="10" stroke-dasharray="" stroke-dashoffset="0" font-family="none" font-weight="none" font-size="none" text-anchor="none" style="mix-blend-mode: normal" data-fill-palette-color="primary" opacity="1"></path><path transform="translate(0,71.4)" d="M17.05 0h-15.3v-0.9h2.35c0.467 0 0.7-0.233 0.7-0.7v0-28.4c0-0.4-0.233-0.6-0.7-0.6v0h-2.35v-0.9h10.2v0.9h-2.35c-0.467 0-0.7 0.2-0.7 0.6v0 28.6h9.95c0.867 0 1.333-0.367 1.4-1.1v0l0.75-5.85h1.15v2.35c0 2.933 0.15 5.083 0.45 6.45v0c-1.067-0.3-2.917-0.45-5.55-0.45zM27.4-1.6v0-28.4c0-0.4-0.233-0.6-0.7-0.6v0h-2.35v-0.9h10.2v0.9h-2.35c-0.467 0-0.7 0.2-0.7 0.6v0 28.4c0 0.467 0.233 0.7 0.7 0.7v0h2.35v0.9h-10.2v-0.9h2.35c0.467 0 0.7-0.233 0.7-0.7zM72.55 0h-10.2v-0.9h2.35c0.467 0 0.7-0.2 0.7-0.6v0-25.55l-10.45 27.05h-1.7l-10.45-26.3v24.7c0 0.467 0.233 0.7 0.7 0.7v0h2.35v0.9h-7.8v-0.9h2.35c0.467 0 0.7-0.233 0.7-0.7v0-28.4c0-0.4-0.233-0.6-0.7-0.6v0h-2.35v-0.9h7.15l10.2 25.85 10-25.85h7.15v0.9h-2.35c-0.467 0-0.7 0.233-0.7 0.7v0 28.4c0 0.4 0.233 0.6 0.7 0.6v0h2.35zM79.1-1.6v0-28.4c0-0.4-0.233-0.6-0.7-0.6v0h-2.35v-0.9h10.2v0.9h-2.35c-0.467 0-0.7 0.2-0.7 0.6v0 28.4c0 0.467 0.233 0.7 0.7 0.7v0h2.35v0.9h-10.2v-0.9h2.35c0.467 0 0.7-0.233 0.7-0.7zM109-30.1h-6.45v28.6c0 0.4 0.233 0.6 0.7 0.6v0h4.35v0.9h-14.2v-0.9h4.35c0.467 0 0.7-0.2 0.7-0.6v0-28.6h-6.45c-0.867 0-1.333 0.367-1.4 1.1v0l-0.75 5.85h-1.15v-2.35c0-2.933-0.15-5.083-0.45-6.45v0c1.067 0.3 2.917 0.45 5.55 0.45v0h13.4c2.633 0 4.483-0.15 5.55-0.45v0c-0.3 1.367-0.45 3.517-0.45 6.45v0 2.35h-1.15l-0.75-5.85c-0.067-0.733-0.533-1.1-1.4-1.1zM131.3 0h-16.55v-0.9h2.35c0.467 0 0.7-0.233 0.7-0.7v0-28.4c0-0.4-0.233-0.6-0.7-0.6v0h-2.35v-0.9h15.85c2.633 0 4.483-0.15 5.55-0.45v0c-0.3 1.367-0.45 3.267-0.45 5.7v0 2.35h-1.15l-0.75-5.1c-0.067-0.733-0.533-1.1-1.4-1.1v0h-10.5v13.65h10.05c0.4 0 0.633-0.233 0.7-0.7v0l0.25-3.1h0.9v9h-0.9l-0.25-3.1c-0.067-0.467-0.3-0.7-0.7-0.7v0h-10.05v13.65h11.2c0.867 0 1.333-0.367 1.4-1.1v0l0.75-5.85h1.15v2.35c0 2.933 0.15 5.083 0.45 6.45v0c-1.067-0.3-2.917-0.45-5.55-0.45zM142.95-30.6h-2.35v-0.9h12.7c4.233 0 7.683 1.4 10.35 4.2 2.667 2.8 4 6.65 4 11.55 0 4.9-1.333 8.75-4 11.55-2.667 2.8-6.117 4.2-10.35 4.2v0h-12.7v-0.9h2.35c0.467 0 0.7-0.2 0.7-0.6v0-28.5c0-0.4-0.233-0.6-0.7-0.6zM153.3-30.1v0h-5.55v28.7h5.55c2.867 0 5.267-1.283 7.2-3.85 1.933-2.567 2.9-6.067 2.9-10.5 0-4.433-0.967-7.933-2.9-10.5-1.933-2.567-4.333-3.85-7.2-3.85z" fill="#ffffff" fill-rule="nonzero" stroke="none" stroke-width="1" stroke-linecap="butt" stroke-linejoin="miter" stroke-miterlimit="10" stroke-dasharray="" stroke-dashoffset="0" font-family="none" font-weight="none" font-size="none" text-anchor="none" style="mix-blend-mode: normal" data-fill-palette-color="primary" opacity="1"></path></g></svg></g></svg></g><g transform="matrix(1,0,0,1,0,163.0352966803231)"><svg viewBox="0 0 232.20979200000002 10.571950894483127" height="10.571950894483127" width="232.20979200000002"><g transform="matrix(1,0,0,1,0,0)"><svg width="232.20979200000002" viewBox="4.5 -33.25 746.72 34" height="10.571950894483127" data-palette-color="#ffffff"><path d="M18-6.25L18-6.25 18-32.5 21.5-32.5 21.5-6.25Q21.5-2.9 19.38-1.07 17.25 0.75 13.03 0.75 8.8 0.75 6.65-1.07 4.5-2.9 4.5-6.25L4.5-6.25 4.5-32.5 8-32.5 8-6.25Q8-2.25 13-2.25 18-2.25 18-6.25ZM34.5-25.25L34.5 0 31 0 31-32.5 32.5-32.5 33.75-29.25Q36.15-33.25 40.4-33.25L40.4-33.25Q47.75-33.25 47.75-26.25L47.75-26.25 47.75 0 44.25 0 44.25-26.25Q44.25-28.15 43.42-29.2 42.6-30.25 40.4-30.25 38.2-30.25 36.35-28.55 34.5-26.85 34.5-25.25L34.5-25.25ZM69.9 0L57.25 0 57.25-32.5 60.75-32.5 60.75-3 69.9-3 69.9 0ZM92.14-26.25L92.14-26.25 92.14-6.25Q92.14-2.9 90.02-1.07 87.89 0.75 83.67 0.75 79.44 0.75 77.29-1.07 75.14-2.9 75.14-6.25L75.14-6.25 75.14-26.25Q75.14-29.6 77.27-31.43 79.39-33.25 83.62-33.25 87.84-33.25 89.99-31.43 92.14-29.6 92.14-26.25ZM88.64-6.25L88.64-6.25 88.64-26.25Q88.64-30.25 83.64-30.25 78.64-30.25 78.64-26.25L78.64-26.25 78.64-6.25Q78.64-2.25 83.64-2.25 88.64-2.25 88.64-6.25ZM113.64-6.25L113.64-6.25 113.64-9 117.14-9 117.14-6.25Q117.14-2.9 115.09-1.07 113.04 0.75 108.94 0.75 104.84 0.75 102.74-1.07 100.64-2.9 100.64-6.25L100.64-6.25 100.64-26.25Q100.64-29.6 102.69-31.43 104.74-33.25 108.84-33.25 112.94-33.25 115.04-31.43 117.14-29.6 117.14-26.25L117.14-26.25 117.14-21.5 113.64-21.5 113.64-26.25Q113.64-30.25 108.89-30.25 104.14-30.25 104.14-26.25L104.14-26.25 104.14-6.25Q104.14-2.25 108.89-2.25 113.64-2.25 113.64-6.25ZM129.44-12.5L129.44 0 125.94 0 125.94-32.5 129.44-32.5 129.44-18.7 138.14-32.5 142.04-32.5 133.19-18.5 142.64 0 138.79 0 131.09-15.15 129.44-12.5ZM152.14-32.5L152.14 0 148.64 0 148.64-32.5 152.14-32.5ZM165.63-25.25L165.63 0 162.13 0 162.13-32.5 163.63-32.5 164.88-29.25Q167.28-33.25 171.53-33.25L171.53-33.25Q178.88-33.25 178.88-26.25L178.88-26.25 178.88 0 175.38 0 175.38-26.25Q175.38-28.15 174.56-29.2 173.73-30.25 171.53-30.25 169.33-30.25 167.48-28.55 165.63-26.85 165.63-25.25L165.63-25.25ZM200.63-13.5L195.03-13.5 195.03-16.5 204.13-16.5 204.13-6.25Q204.13-2.9 202.08-1.07 200.03 0.75 195.93 0.75 191.83 0.75 189.73-1.07 187.63-2.9 187.63-6.25L187.63-6.25 187.63-26.25Q187.63-29.6 189.68-31.43 191.73-33.25 195.83-33.25 199.93-33.25 202.03-31.43 204.13-29.6 204.13-26.25L204.13-26.25 204.13-23.5 200.63-23.5 200.63-26.25Q200.63-30.25 195.88-30.25 191.13-30.25 191.13-26.25L191.13-26.25 191.13-6.25Q191.13-2.25 195.88-2.25 200.63-2.25 200.63-6.25L200.63-6.25 200.63-13.5ZM237.13-6.25L237.13-6.25 237.13-9 240.63-9 240.63-6.25Q240.63-2.9 238.58-1.07 236.53 0.75 232.43 0.75 228.33 0.75 226.23-1.07 224.13-2.9 224.13-6.25L224.13-6.25 224.13-26.25Q224.13-29.6 226.18-31.43 228.23-33.25 232.33-33.25 236.43-33.25 238.53-31.43 240.63-29.6 240.63-26.25L240.63-26.25 240.63-21.5 237.13-21.5 237.13-26.25Q237.13-30.25 232.38-30.25 227.63-30.25 227.63-26.25L227.63-26.25 227.63-6.25Q227.63-2.25 232.38-2.25 237.13-2.25 237.13-6.25ZM265.62-26.25L265.62-26.25 265.62-6.25Q265.62-2.9 263.5-1.07 261.37 0.75 257.15 0.75 252.92 0.75 250.77-1.07 248.62-2.9 248.62-6.25L248.62-6.25 248.62-26.25Q248.62-29.6 250.75-31.43 252.87-33.25 257.1-33.25 261.32-33.25 263.47-31.43 265.62-29.6 265.62-26.25ZM262.12-6.25L262.12-6.25 262.12-26.25Q262.12-30.25 257.12-30.25 252.12-30.25 252.12-26.25L252.12-26.25 252.12-6.25Q252.12-2.25 257.12-2.25 262.12-2.25 262.12-6.25ZM278.37-25.4L278.37 0 274.87 0 274.87-32.5 276.37-32.5 277.62-29.3Q278.67-31.1 280.37-32.18 282.07-33.25 284.07-33.25L284.07-33.25Q289.12-33.25 290.52-29.6L290.52-29.6Q292.92-33.25 296.82-33.25L296.82-33.25Q303.87-33.25 303.87-26.25L303.87-26.25 303.87 0 300.37 0 300.37-26.25Q300.37-30.25 296.77-30.25L296.77-30.25Q294.67-30.25 292.9-28.55 291.12-26.85 291.12-25.25L291.12-25.25 291.12 0 287.62 0 287.62-26.25Q287.62-30.25 284.02-30.25L284.02-30.25Q281.92-30.25 280.15-28.63 278.37-27 278.37-25.4L278.37-25.4ZM316.87-25.4L316.87 0 313.37 0 313.37-32.5 314.87-32.5 316.12-29.3Q317.17-31.1 318.87-32.18 320.57-33.25 322.57-33.25L322.57-33.25Q327.62-33.25 329.02-29.6L329.02-29.6Q331.42-33.25 335.32-33.25L335.32-33.25Q342.37-33.25 342.37-26.25L342.37-26.25 342.37 0 338.87 0 338.87-26.25Q338.87-30.25 335.27-30.25L335.27-30.25Q333.17-30.25 331.39-28.55 329.62-26.85 329.62-25.25L329.62-25.25 329.62 0 326.12 0 326.12-26.25Q326.12-30.25 322.52-30.25L322.52-30.25Q320.42-30.25 318.64-28.63 316.87-27 316.87-25.4L316.87-25.4ZM351.37-6.25L351.37-6.25 351.37-32.5 354.87-32.5 354.87-6.25Q354.87-4.35 355.69-3.3 356.52-2.25 358.72-2.25 360.92-2.25 362.77-3.95 364.62-5.65 364.62-7.25L364.62-7.25 364.62-32.5 368.12-32.5 368.12 0 366.62 0 365.32-3.2Q364.22-1.4 362.49-0.33 360.77 0.75 358.72 0.75L358.72 0.75Q351.37 0.75 351.37-6.25ZM381.61-25.25L381.61 0 378.11 0 378.11-32.5 379.61-32.5 380.86-29.25Q383.26-33.25 387.51-33.25L387.51-33.25Q394.86-33.25 394.86-26.25L394.86-26.25 394.86 0 391.36 0 391.36-26.25Q391.36-28.15 390.54-29.2 389.71-30.25 387.51-30.25 385.31-30.25 383.46-28.55 381.61-26.85 381.61-25.25L381.61-25.25ZM407.86-32.5L407.86 0 404.36 0 404.36-32.5 407.86-32.5ZM430.11-6.25L430.11-6.25 430.11-9 433.61-9 433.61-6.25Q433.61-2.9 431.56-1.07 429.51 0.75 425.41 0.75 421.31 0.75 419.21-1.07 417.11-2.9 417.11-6.25L417.11-6.25 417.11-26.25Q417.11-29.6 419.16-31.43 421.21-33.25 425.31-33.25 429.41-33.25 431.51-31.43 433.61-29.6 433.61-26.25L433.61-26.25 433.61-21.5 430.11-21.5 430.11-26.25Q430.11-30.25 425.36-30.25 420.61-30.25 420.61-26.25L420.61-26.25 420.61-6.25Q420.61-2.25 425.36-2.25 430.11-2.25 430.11-6.25ZM457.86-26.25L457.86 0 456.36 0 455.06-3.2Q454.01-1.4 452.31-0.33 450.61 0.75 448.56 0.75L448.56 0.75Q441.36 0.75 441.36-6.25L441.36-6.25 441.36-11.25Q441.36-18.25 448.56-18.25L448.56-18.25 454.36-18.25 454.36-26.45Q454.36-28.25 453.21-29.25 452.06-30.25 449.81-30.25L449.81-30.25Q445.36-30.25 445.36-26.45L445.36-26.45 445.36-23.5 441.86-23.5 441.86-26.25Q441.86-29.6 443.83-31.43 445.81-33.25 449.81-33.25 453.81-33.25 455.83-31.43 457.86-29.6 457.86-26.25L457.86-26.25ZM454.36-7.1L454.36-15.25 448.56-15.25Q446.46-15.25 445.66-14.2 444.86-13.15 444.86-11.25L444.86-11.25 444.86-6.25Q444.86-4.35 445.66-3.3 446.46-2.25 448.56-2.25 450.66-2.25 452.46-3.88 454.26-5.5 454.36-7.1L454.36-7.1ZM466.6-5.75L466.6-32.5 477.6-32.5 477.6-29.5 470.1-29.5 470.1-5.55Q470.1-4.15 470.83-3.2 471.55-2.25 472.88-2.25 474.2-2.25 474.9-3.18 475.6-4.1 475.6-5.55L475.6-5.55 475.6-11.5 479.1-11.5 479.1-5.75Q479.1-2.6 477.43-0.93 475.75 0.75 472.9 0.75 470.05 0.75 468.33-0.93 466.6-2.6 466.6-5.75L466.6-5.75ZM489.6-32.5L489.6 0 486.1 0 486.1-32.5 489.6-32.5ZM515.85-26.25L515.85-26.25 515.85-6.25Q515.85-2.9 513.72-1.07 511.6 0.75 507.37 0.75 503.15 0.75 501-1.07 498.85-2.9 498.85-6.25L498.85-6.25 498.85-26.25Q498.85-29.6 500.97-31.43 503.1-33.25 507.32-33.25 511.55-33.25 513.7-31.43 515.85-29.6 515.85-26.25ZM512.35-6.25L512.35-6.25 512.35-26.25Q512.35-30.25 507.35-30.25 502.35-30.25 502.35-26.25L502.35-26.25 502.35-6.25Q502.35-2.25 507.35-2.25 512.35-2.25 512.35-6.25ZM528.6-25.25L528.6 0 525.1 0 525.1-32.5 526.6-32.5 527.85-29.25Q530.25-33.25 534.5-33.25L534.5-33.25Q541.85-33.25 541.85-26.25L541.85-26.25 541.85 0 538.35 0 538.35-26.25Q538.35-28.15 537.52-29.2 536.7-30.25 534.5-30.25 532.3-30.25 530.45-28.55 528.6-26.85 528.6-25.25L528.6-25.25ZM565.84-10L565.84 0 562.34 0 562.34-32.5 569.89-32.5Q573.79-32.5 575.81-30.65 577.84-28.8 577.84-25.5L577.84-25.5 577.84-17Q577.84-13.65 575.84-11.83 573.84-10 569.89-10L569.89-10 565.84-10ZM574.34-17L574.34-17 574.34-25.5Q574.34-27.4 573.19-28.45 572.04-29.5 569.89-29.5L569.89-29.5 565.84-29.5 565.84-13 569.89-13Q574.34-13 574.34-17ZM602.09-26.25L602.09-26.25 602.09-6.25Q602.09-2.9 599.96-1.07 597.84 0.75 593.61 0.75 589.39 0.75 587.24-1.07 585.09-2.9 585.09-6.25L585.09-6.25 585.09-26.25Q585.09-29.6 587.21-31.43 589.34-33.25 593.56-33.25 597.79-33.25 599.94-31.43 602.09-29.6 602.09-26.25ZM598.59-6.25L598.59-6.25 598.59-26.25Q598.59-30.25 593.59-30.25 588.59-30.25 588.59-26.25L588.59-26.25 588.59-6.25Q588.59-2.25 593.59-2.25 598.59-2.25 598.59-6.25ZM610.58-5.75L610.58-32.5 621.58-32.5 621.58-29.5 614.08-29.5 614.08-5.55Q614.08-4.15 614.81-3.2 615.53-2.25 616.86-2.25 618.18-2.25 618.88-3.18 619.58-4.1 619.58-5.55L619.58-5.55 619.58-11.5 623.08-11.5 623.08-5.75Q623.08-2.6 621.41-0.93 619.73 0.75 616.88 0.75 614.03 0.75 612.31-0.93 610.58-2.6 610.58-5.75L610.58-5.75ZM642.33-6.25L642.33-6.25 642.33-9 645.83-9 645.83-6.25Q645.83-2.9 643.78-1.07 641.73 0.75 637.63 0.75 633.53 0.75 631.43-1.07 629.33-2.9 629.33-6.25L629.33-6.25 629.33-26.25Q629.33-29.6 631.38-31.43 633.43-33.25 637.53-33.25 641.63-33.25 643.73-31.43 645.83-29.6 645.83-26.25L645.83-26.25 645.83-15.25 632.83-15.25 632.83-6.25Q632.83-2.25 637.58-2.25 642.33-2.25 642.33-6.25ZM632.83-26.25L632.83-26.25 632.83-18.25 642.33-18.25 642.33-26.25Q642.33-30.25 637.58-30.25 632.83-30.25 632.83-26.25ZM658.58-25.25L658.58 0 655.08 0 655.08-32.5 656.58-32.5 657.83-29.25Q660.23-33.25 664.48-33.25L664.48-33.25Q671.83-33.25 671.83-26.25L671.83-26.25 671.83 0 668.33 0 668.33-26.25Q668.33-28.15 667.5-29.2 666.68-30.25 664.48-30.25 662.28-30.25 660.43-28.55 658.58-26.85 658.58-25.25L658.58-25.25ZM680.58-5.75L680.58-32.5 691.58-32.5 691.58-29.5 684.08-29.5 684.08-5.55Q684.08-4.15 684.8-3.2 685.53-2.25 686.85-2.25 688.18-2.25 688.88-3.18 689.58-4.1 689.58-5.55L689.58-5.55 689.58-11.5 693.08-11.5 693.08-5.75Q693.08-2.6 691.4-0.93 689.73 0.75 686.88 0.75 684.03 0.75 682.3-0.93 680.58-2.6 680.58-5.75L680.58-5.75ZM703.57-32.5L703.57 0 700.07 0 700.07-32.5 703.57-32.5ZM729.07-26.25L729.07 0 727.57 0 726.27-3.2Q725.22-1.4 723.52-0.33 721.82 0.75 719.77 0.75L719.77 0.75Q712.57 0.75 712.57-6.25L712.57-6.25 712.57-11.25Q712.57-18.25 719.77-18.25L719.77-18.25 725.57-18.25 725.57-26.45Q725.57-28.25 724.42-29.25 723.27-30.25 721.02-30.25L721.02-30.25Q716.57-30.25 716.57-26.45L716.57-26.45 716.57-23.5 713.07-23.5 713.07-26.25Q713.07-29.6 715.05-31.43 717.02-33.25 721.02-33.25 725.02-33.25 727.05-31.43 729.07-29.6 729.07-26.25L729.07-26.25ZM725.57-7.1L725.57-15.25 719.77-15.25Q717.67-15.25 716.87-14.2 716.07-13.15 716.07-11.25L716.07-11.25 716.07-6.25Q716.07-4.35 716.87-3.3 717.67-2.25 719.77-2.25 721.87-2.25 723.67-3.88 725.47-5.5 725.57-7.1L725.57-7.1ZM751.22 0L738.57 0 738.57-32.5 742.07-32.5 742.07-3 751.22-3 751.22 0Z" opacity="1" transform="matrix(1,0,0,1,0,0)" fill="#ffffff" class="slogan-text-1" data-fill-palette-color="secondary" id="text-1"></path></svg></g></svg></g></svg></g></svg></g><g transform="matrix(1,0,0,1,0,4.915508107213469)"><svg viewBox="0 0 244.43135999999998 164.6442675982533" height="164.6442675982533" width="244.43135999999998"><g><svg xmlns="http://www.w3.org/2000/svg" xmlns:xlink="http://www.w3.org/1999/xlink" version="1.1" x="0" y="0" viewBox="4 19 91.6 61.7" enable-background="new 0 0 100 100" xml:space="preserve" height="164.6442675982533" width="244.43135999999998" class="icon-icon-0" data-fill-palette-color="accent" id="icon-0"><path d="M95.6 52.8c0-6.1-3.8-11.7-10.2-15.9-3.7-2.4-8.4-4.2-13.4-5.2V22c0-1.6-0.6-3-2.2-3H7.3C5.7 19 4 20.5 4 22V57c0 1.6 1.7 2 3.3 2h2.6l-3.5 8.9c-0.5 1.1-0.2 2.7 0.8 3.5 0.5 0.4 1.2 0.8 1.8 0.8 0.5 0 1-0.5 1.5-0.8L29.9 59h3.4c1.6 4 4.4 6.8 8.2 9.2 6 3.9 13.8 6.3 22.1 6.3 2.6 0 5.3-0.1 7.8-0.5l12.7 6.4c0.4 0.2 0.8 0.3 1.3 0.3 0.6 0 1.2-0.2 1.7-0.5 0.9-0.6 1.3-1.6 1.2-2.7l-1.3-9.6C92.5 63.8 95.6 58.5 95.6 52.8zM29.1 54c-0.5 0-1.1 0.2-1.5 0.5l-12.5 7.8 1.8-4.2c0.4-0.9 0.3-1.9-0.3-2.7C16 54.5 15.1 54 14.2 54H10V25h57v5.9c-2-0.1-2.3-0.1-3.4-0.1-8.3 0-16.2 2.2-22.2 6.1-6.3 4.2-9.8 9.7-9.8 15.8 0 0.4 0 1.3 0.1 1.3H29.1zM37.3 52.7c0-8.8 12-16.2 26.3-16.2 1.1 0 1.4 0.1 3.4 0.2V54H37.4C37.4 54 37.3 53.2 37.3 52.7zM82.3 64.1c-0.9 0.6-1.4 1.7-1.3 2.8l0.8 6-8.8-4.3c-0.4-0.2-0.8-0.3-1.3-0.3-0.2 0-0.4 0-0.5 0.1-2.5 0.5-5.1 0.3-7.7 0.3-10.2 0-19.2-3.6-23.5-9.6h29.8c1.6 0 2.2-0.5 2.2-2V37.6c11 2.3 17.5 8.3 17.5 15.2C89.5 57 87.2 61 82.3 64.1z" fill="#ed2326" data-fill-palette-color="accent"></path></svg></g></svg></g></svg></g></svg></g></svg></g><defs></defs></svg><rect width="395.52" height="247.2" fill="none" stroke="none" visibility="hidden"></rect></g></svg></g></svg>