<svg width="219" height="145" viewBox="0 0 219 145" fill="none" xmlns="http://www.w3.org/2000/svg">
<g filter="url(#filter0_d_82_5)">
<path d="M194.817 36.7924C193.24 36.4717 191.641 36.3172 189.996 36.3172H137.353C139.257 41.9371 140.124 47.5213 139.955 53.2244H162.458C161.952 57.9769 161.028 62.6345 159.688 67.1732C159.192 68.8366 158.64 70.488 158.021 72.1514H135.213C132.724 72.1514 130.291 71.6881 127.949 70.8801C128.028 70.7376 128.106 70.595 128.185 70.4405C128.388 70.0722 128.557 69.7039 128.703 69.3355C133.377 57.3591 133.715 45.1926 128.275 33.228C123.308 22.2972 114.76 12.9703 104.702 7.14838C90.2066 -1.23987 75.7562 -0.503235 67.8834 0.791836C65.8786 1.1364 64.2905 1.50473 63.2656 1.76612C64.9213 1.74236 67.0162 1.82552 69.3364 2.24137C72.6139 2.79979 76.3081 4.01169 79.7658 6.50678C85.9717 10.891 87.9653 16.7366 91.1189 26.7051C92.0199 29.5567 93.0223 32.7409 94.25 36.3291C97.933 47.0817 102.157 58.2027 108.227 67.7315C114.782 78.0208 123.917 83.5695 135.146 86.623C135.225 86.6467 135.315 86.6705 135.371 86.6824C139.741 87.8705 144.573 88.7141 149.472 88.7141C149.483 88.7141 149.495 88.7141 149.517 88.7141C149.438 88.8329 149.36 88.9636 149.269 89.0824C148.875 89.6409 148.515 90.1874 148.121 90.7221H148.098C141.622 99.6093 133.377 106.762 124.052 111.788C115.672 116.326 106.403 119.142 96.7278 119.891C94.9595 120.045 93.2251 120.105 91.4342 120.105C68.2101 120.105 47.5651 108.663 34.5564 90.5438C28.1252 81.609 23.5074 71.0346 21.4012 59.4027C21.007 57.371 20.7255 55.3155 20.5002 53.2125H42.5756C42.5531 53.2125 42.5531 53.1887 42.5531 53.1887C41.0551 49.9927 39.9288 46.9867 39.1066 43.9094C38.4308 41.3787 37.9352 38.8479 37.6762 36.2934H4.37168C4.10137 39.038 4 41.9133 4 44.753C4 47.5807 4.10137 50.4204 4.37168 53.2125C5.94849 71.8782 12.8189 88.9161 23.3723 102.663C39.3656 123.622 63.9189 137 91.4455 137C92.0199 137 92.6394 137 93.2138 136.976C125.583 136.311 153.639 117.099 168.236 89.0586H190.008C203.805 89.0586 215 77.2129 215 62.6582C214.989 49.8263 206.294 39.145 194.817 36.7924ZM120.29 36.3172C119.592 35.0459 118.871 33.8102 118.139 32.5745C117.114 30.9111 116.044 29.2478 114.917 27.62C113.814 26.016 112.62 24.4596 111.37 22.9506C110.165 21.4179 108.847 19.9922 107.495 18.6021C106.819 17.8892 106.121 17.2357 105.423 16.5703C105.074 16.2495 104.679 15.9406 104.342 15.6198C103.97 15.2753 103.621 14.9664 103.238 14.6693C100.287 12.1861 97.0094 10.1306 93.5179 8.37217C97.2685 9.39396 100.839 11.1405 104.049 13.4812C107.304 15.7981 110.176 18.6258 112.721 21.715C113.971 23.2952 115.177 24.911 116.292 26.5982C117.373 28.3091 118.398 30.032 119.344 31.826C120.087 33.2993 120.797 34.7845 121.439 36.3053C122.362 38.5152 123.162 40.7846 123.759 43.1134C122.689 40.7965 121.518 38.5271 120.29 36.3172ZM190.008 72.1514H175.039C176.841 66.0919 178.012 59.7829 178.564 53.2244H190.008C194.929 53.2244 198.95 57.4423 198.95 62.6701C198.939 67.886 194.918 72.1514 190.008 72.1514Z" fill="white"/>
<path d="M46.2697 41.7707C47.0919 44.7529 48.1506 47.3905 49.2206 49.6837C49.84 50.9787 50.4482 52.1668 51.0452 53.2243C51.4957 54.0679 51.9462 54.852 52.3404 55.5412C52.9374 56.5748 53.5455 57.5491 54.1875 58.4996C60.2808 67.8027 67.8382 73.2207 72.6925 76.0603C87.1429 84.4486 101.593 83.6882 109.466 82.3931C111.493 82.0723 113.093 81.704 114.118 81.4426C112.462 81.4426 110.367 81.3594 108.047 80.9436H108.024C104.769 80.3852 101.075 79.1732 97.5949 76.7019C92.7519 73.2801 90.4767 68.9553 88.2242 62.4918C87.5934 60.6739 86.9289 58.6897 86.2306 56.5036C85.904 55.4699 85.5548 54.3649 85.1831 53.2124C83.6852 48.4718 81.8268 42.9231 79.18 36.3052C78.5605 34.725 77.8848 33.0616 77.1527 31.3507L77.0063 30.9823C76.781 30.5071 76.6008 30.0556 76.3868 29.5803C74.213 24.5189 71.8366 19.5643 69.0096 14.8593C68.1085 13.3622 66.9822 11.485 65.6532 9.69092C64.831 8.58595 63.93 7.55226 62.9726 6.63739C60.9002 4.73637 58.5012 3.54823 55.8432 4.26111C55.7418 4.30864 55.5954 4.32053 55.494 4.34429C55.3476 4.41558 55.2125 4.47499 55.066 4.5344C53.7145 5.16411 52.9937 6.41162 52.1152 7.73046C51.0452 9.33444 50.0653 10.9978 49.2093 12.7444C46.9117 17.3544 45.4588 22.4159 44.9857 27.5843C44.7154 30.6734 44.8168 33.5962 45.1885 36.2933C45.425 38.2419 45.8192 40.0597 46.2697 41.7707ZM59.2446 50.6104C59.7739 51.5015 60.3258 52.3569 60.9002 53.2243C61.3958 54.0203 61.9252 54.8045 62.4545 55.5649C63.5583 57.1927 64.7522 58.7491 66.0024 60.2581C67.2075 61.7908 68.5027 63.2165 69.8768 64.5829C70.5301 65.2958 71.2509 65.973 71.9492 66.6384C72.2983 66.9592 72.67 67.2681 73.0305 67.5889C73.3796 67.9097 73.7513 68.2186 74.1117 68.5394C77.0851 70.9989 80.3401 73.0781 83.8316 74.8365C80.1036 73.8147 76.5107 72.0444 73.312 69.7157C70.057 67.4225 67.185 64.5948 64.6395 61.4937C63.3668 59.9135 62.1617 58.2976 61.0692 56.6105C60.3709 55.5055 59.6726 54.3887 59.0419 53.2362C58.6702 52.6302 58.3436 52.0005 58.0169 51.3827C56.1698 47.7707 54.6155 44.0281 53.6131 40.0954C55.3026 43.7311 57.2173 47.2361 59.2446 50.6104Z" fill="#8B621C"/>
</g>
<defs>
<filter id="filter0_d_82_5" x="0" y="0" width="219" height="145" filterUnits="userSpaceOnUse" color-interpolation-filters="sRGB">
<feFlood flood-opacity="0" result="BackgroundImageFix"/>
<feColorMatrix in="SourceAlpha" type="matrix" values="0 0 0 0 0 0 0 0 0 0 0 0 0 0 0 0 0 0 127 0" result="hardAlpha"/>
<feOffset dy="4"/>
<feGaussianBlur stdDeviation="2"/>
<feComposite in2="hardAlpha" operator="out"/>
<feColorMatrix type="matrix" values="0 0 0 0 0 0 0 0 0 0 0 0 0 0 0 0 0 0 0.25 0"/>
<feBlend mode="normal" in2="BackgroundImageFix" result="effect1_dropShadow_82_5"/>
<feBlend mode="normal" in="SourceGraphic" in2="effect1_dropShadow_82_5" result="shape"/>
</filter>
</defs>
</svg>
