<svg width="538" height="120" viewBox="0 0 538 120" fill="none" xmlns="http://www.w3.org/2000/svg">
<path d="M220.81 22.2563H196.47V88.3663H209.73V62.9864H220.81C237.86 62.9864 244.67 52.7464 244.67 42.7164C244.68 31.2464 236.72 22.2563 220.81 22.2563ZM220.25 52.2764H209.74V33.0564H220.25C227.73 33.0564 231.04 36.6564 231.04 42.7064C231.04 48.5864 227.73 52.2764 220.25 52.2764Z" fill="white"/>
<path d="M291.94 35.8964V43.3864C288.82 39.0264 283.04 35.0464 274.62 35.0464C261.26 35.0464 250.65 45.5564 250.65 61.9464C250.65 78.3264 261.26 89.2164 274.52 89.2164C282.85 89.2164 288.82 85.2364 291.94 80.6864V88.3664H305.3V35.8964H291.94ZM278.02 77.5664C270.92 77.5664 264.19 71.8864 264.19 61.9464C264.19 51.9964 270.91 46.6964 278.02 46.6964C285.31 46.6964 291.93 52.1864 291.93 62.1264C291.94 72.0764 285.31 77.5664 278.02 77.5664Z" fill="white"/>
<path d="M330.39 77.4665L353.5 46.5965V35.8965H315.43V46.7965H338.26L315.33 77.6665V88.3665H353.78V77.4665H330.39Z" fill="white"/>
<path d="M498.12 44.0365V35.8864H484.87V88.3565H498.12V62.2065C498.12 52.0765 502.86 49.0464 510.72 49.0464H514.22V35.1265C506.94 35.1365 501.44 38.6465 498.12 44.0365Z" fill="white"/>
<path d="M529.85 14.1064C525.11 14.1064 521.7 17.5165 521.7 21.8665C521.7 26.2265 525.11 29.6364 529.85 29.6364C534.49 29.6364 538 26.2265 538 21.8665C538 17.5165 534.5 14.1064 529.85 14.1064ZM523.13 35.8965V88.3664H536.38V35.8965H523.13Z" fill="white"/>
<path d="M414.82 30.1365L436.02 16.0065L416.21 32.2265C424.55 38.4865 435.44 33.1565 441.7 24.1165C447.96 15.0765 457.22 11.3765 457.22 11.3765C422.24 0.0164914 414.82 30.1365 414.82 30.1365Z" fill="#308C50"/>
<path d="M414.82 30.1164C414.82 30.1164 410.07 10.8265 387.66 18.0965C387.66 18.0965 393.6 20.4664 397.6 26.2564C401.61 32.0464 408.58 35.4564 413.92 31.4464L401.23 21.0564L414.82 30.1164Z" fill="#308C50"/>
<path d="M169.42 30.9665C168.02 30.6965 166.6 30.5665 165.14 30.5665H118.4C120.09 35.2965 120.86 39.9965 120.71 44.7965H140.69C140.24 48.7965 139.42 52.7165 138.23 56.5365C137.79 57.9365 137.3 59.3264 136.75 60.7264H116.5C114.29 60.7264 112.13 60.3365 110.05 59.6565C110.12 59.5365 110.19 59.4165 110.26 59.2865C110.44 58.9765 110.59 58.6665 110.72 58.3565C114.87 48.2765 115.17 38.0365 110.34 27.9665C105.93 18.7665 98.34 10.9165 89.41 6.01646C76.54 -1.04354 63.71 -0.423549 56.72 0.666451C54.94 0.956451 53.53 1.26646 52.62 1.48646C54.09 1.46646 55.95 1.53645 58.01 1.88645C60.92 2.35645 64.2 3.37645 67.27 5.47645C72.78 9.16645 74.55 14.0864 77.35 22.4764C78.15 24.8764 79.04 27.5565 80.13 30.5765C83.4 39.6265 87.15 48.9864 92.54 57.0064C98.36 65.6664 106.47 70.3365 116.44 72.9065C116.51 72.9265 116.59 72.9465 116.64 72.9565C120.52 73.9565 124.81 74.6665 129.16 74.6665C129.17 74.6665 129.18 74.6665 129.2 74.6665C129.13 74.7665 129.06 74.8765 128.98 74.9765C128.63 75.4465 128.31 75.9065 127.96 76.3565H127.94C122.19 83.8365 114.87 89.8565 106.59 94.0865C99.15 97.9065 90.92 100.276 82.33 100.906C80.76 101.036 79.22 101.086 77.63 101.086C57.01 101.086 38.68 91.4565 27.13 76.2065C21.42 68.6865 17.32 59.7865 15.45 49.9965C15.1 48.2865 14.85 46.5565 14.65 44.7865H34.25C34.23 44.7865 34.23 44.7665 34.23 44.7665C32.9 42.0765 31.9 39.5465 31.17 36.9565C30.57 34.8265 30.13 32.6965 29.9 30.5465H0.330002C0.0900018 32.8565 0 35.2765 0 37.6665C0 40.0465 0.0900018 42.4365 0.330002 44.7865C1.73 60.4965 7.83 74.8365 17.2 86.4065C31.4 104.046 53.2 115.306 77.64 115.306C78.15 115.306 78.7 115.306 79.21 115.286C107.95 114.726 132.86 98.5565 145.82 74.9565H165.15C177.4 74.9565 187.34 64.9865 187.34 52.7365C187.33 41.9365 179.61 32.9465 169.42 30.9665ZM103.25 30.5665C102.63 29.4965 101.99 28.4565 101.34 27.4165C100.43 26.0165 99.48 24.6165 98.48 23.2465C97.5 21.8965 96.44 20.5865 95.33 19.3165C94.26 18.0265 93.09 16.8265 91.89 15.6565C91.29 15.0565 90.67 14.5065 90.05 13.9465C89.74 13.6765 89.39 13.4165 89.09 13.1465C88.76 12.8565 88.45 12.5965 88.11 12.3465C85.49 10.2565 82.58 8.52646 79.48 7.04646C82.81 7.90646 85.98 9.37647 88.83 11.3465C91.72 13.2965 94.27 15.6765 96.53 18.2765C97.64 19.6065 98.71 20.9665 99.7 22.3865C100.66 23.8265 101.57 25.2765 102.41 26.7865C103.07 28.0265 103.7 29.2765 104.27 30.5565C105.09 32.4165 105.8 34.3265 106.33 36.2865C105.38 34.3365 104.34 32.4265 103.25 30.5665ZM165.15 60.7264H151.86C153.46 55.6264 154.5 50.3165 154.99 44.7965H165.15C169.52 44.7965 173.09 48.3465 173.09 52.7465C173.08 57.1365 169.51 60.7264 165.15 60.7264Z" fill="white"/>
<path d="M37.53 35.1564C38.26 37.6664 39.2 39.8864 40.15 41.8164C40.7 42.9064 41.24 43.9064 41.77 44.7964C42.17 45.5064 42.57 46.1664 42.92 46.7464C43.45 47.6164 43.99 48.4364 44.56 49.2364C49.97 57.0664 56.68 61.6264 60.99 64.0164C73.82 71.0764 86.65 70.4364 93.64 69.3464C95.44 69.0764 96.86 68.7664 97.77 68.5464C96.3 68.5464 94.44 68.4764 92.38 68.1264H92.36C89.47 67.6564 86.19 66.6364 83.1 64.5564C78.8 61.6764 76.78 58.0364 74.78 52.5964C74.22 51.0664 73.63 49.3964 73.01 47.5564C72.72 46.6864 72.41 45.7564 72.08 44.7864C70.75 40.7964 69.1 36.1264 66.75 30.5564C66.2 29.2264 65.6 27.8264 64.95 26.3864L64.82 26.0764C64.62 25.6764 64.46 25.2964 64.27 24.8964C62.34 20.6364 60.23 16.4664 57.72 12.5064C56.92 11.2464 55.92 9.66641 54.74 8.15641C54.01 7.22641 53.21 6.3564 52.36 5.5864C50.52 3.9864 48.39 2.9864 46.03 3.5864C45.94 3.6264 45.81 3.63641 45.72 3.65641C45.59 3.71641 45.47 3.76641 45.34 3.81641C44.14 4.34641 43.5 5.39638 42.72 6.50638C41.77 7.85638 40.9 9.25638 40.14 10.7264C38.1 14.6064 36.81 18.8664 36.39 23.2164C36.15 25.8164 36.24 28.2764 36.57 30.5464C36.78 32.1864 37.13 33.7164 37.53 35.1564ZM49.05 42.5964C49.52 43.3464 50.01 44.0664 50.52 44.7964C50.96 45.4664 51.43 46.1264 51.9 46.7664C52.88 48.1364 53.94 49.4464 55.05 50.7164C56.12 52.0064 57.27 53.2064 58.49 54.3564C59.07 54.9564 59.71 55.5264 60.33 56.0864C60.64 56.3564 60.97 56.6164 61.29 56.8864C61.6 57.1564 61.93 57.4164 62.25 57.6864C64.89 59.7564 67.78 61.5064 70.88 62.9864C67.57 62.1264 64.38 60.6364 61.54 58.6764C58.65 56.7464 56.1 54.3664 53.84 51.7564C52.71 50.4264 51.64 49.0664 50.67 47.6464C50.05 46.7164 49.43 45.7764 48.87 44.8064C48.54 44.2964 48.25 43.7664 47.96 43.2464C46.32 40.2064 44.94 37.0564 44.05 33.7464C45.55 36.8064 47.25 39.7564 49.05 42.5964Z" fill="white"/>
<path d="M458.19 36.7464C456.95 36.2964 455.66 35.9264 454.32 35.6664C452.33 35.2464 450.25 35.0464 448.11 35.0464C440.54 35.0464 433.79 37.6764 428.94 42.3764L414.21 56.6464L398.15 72.1964L398.14 72.2164L394.8 75.4564C392.64 76.8864 390.11 77.6264 387.53 77.6564C387.45 77.6664 387.38 77.6664 387.3 77.6664C380.2 77.6664 374.14 72.5464 374.14 62.1264C374.14 51.6264 380.48 46.5964 387.49 46.5964C394.5 46.5964 401.03 51.6164 401.03 62.1264C401.03 63.0264 400.98 63.8964 400.87 64.7164L413.23 52.7364C409.66 41.6864 399.72 35.0364 387.67 35.0364C372.52 35.0364 360.67 45.5464 360.67 62.1164C360.67 74.7264 367.38 83.9063 377.33 87.5063C378.57 87.9663 379.86 88.3264 381.2 88.5864C383.14 88.9964 385.18 89.2064 387.29 89.2064C394.44 89.2064 400.9 86.8763 405.75 82.6964L405.79 82.6664C406.48 82.0664 407.14 81.4263 407.76 80.7463L421.53 67.4164L437.09 52.3264L441.18 48.3664C443.19 47.1764 445.51 46.5864 447.9 46.5864H448C454.97 46.6264 461.45 51.6564 461.45 62.1164C461.45 72.5364 454.73 77.6564 447.72 77.6564C440.62 77.6564 434.55 72.5364 434.55 62.1164C434.55 61.1964 434.6 60.3164 434.7 59.4864L422.45 71.3564C425.89 82.4564 435.63 89.2064 447.72 89.2064C462.97 89.2064 475.09 78.5964 475.09 62.1164C475.11 49.4664 468.2 40.3464 458.19 36.7464Z" fill="white"/>
<path d="M213.75 117.386C213.22 117.786 212.65 118.136 212.04 118.436C211.43 118.736 210.76 118.956 210.04 119.106C209.31 119.256 208.51 119.336 207.63 119.336C206.25 119.336 204.98 119.086 203.81 118.586C202.64 118.086 201.64 117.396 200.78 116.526C199.93 115.656 199.26 114.626 198.78 113.446C198.3 112.266 198.05 110.986 198.05 109.626C198.05 108.286 198.29 107.016 198.76 105.836C199.24 104.656 199.9 103.616 200.76 102.726C201.62 101.836 202.64 101.136 203.83 100.626C205.01 100.116 206.32 99.8564 207.76 99.8564C208.62 99.8564 209.41 99.9264 210.11 100.076C210.82 100.216 211.47 100.426 212.06 100.676C212.65 100.936 213.2 101.246 213.7 101.606C214.2 101.966 214.68 102.356 215.12 102.786L213 105.236C212.25 104.536 211.45 103.976 210.61 103.546C209.77 103.116 208.81 102.896 207.73 102.896C206.83 102.896 206 103.076 205.24 103.416C204.48 103.766 203.82 104.246 203.26 104.846C202.7 105.446 202.27 106.146 201.97 106.956C201.66 107.766 201.51 108.636 201.51 109.566C201.51 110.496 201.66 111.376 201.97 112.186C202.27 113.006 202.7 113.716 203.26 114.326C203.82 114.936 204.47 115.416 205.24 115.766C206 116.116 206.83 116.286 207.73 116.286C208.88 116.286 209.86 116.066 210.69 115.626C211.51 115.186 212.33 114.586 213.14 113.836L215.26 115.986C214.79 116.526 214.28 116.986 213.75 117.386Z" fill="white"/>
<path d="M245.47 113.346C244.99 114.526 244.31 115.566 243.43 116.456C242.55 117.346 241.51 118.046 240.31 118.566C239.11 119.086 237.78 119.346 236.33 119.346C234.88 119.346 233.55 119.086 232.35 118.576C231.15 118.066 230.12 117.366 229.26 116.496C228.4 115.626 227.73 114.586 227.24 113.406C226.76 112.226 226.51 110.966 226.51 109.636C226.51 108.306 226.75 107.056 227.24 105.876C227.72 104.696 228.4 103.656 229.28 102.766C230.16 101.876 231.2 101.176 232.4 100.656C233.6 100.136 234.93 99.8765 236.38 99.8765C237.83 99.8765 239.16 100.136 240.36 100.646C241.56 101.156 242.59 101.857 243.45 102.727C244.31 103.607 244.98 104.636 245.47 105.816C245.95 106.996 246.2 108.256 246.2 109.576C246.19 110.906 245.95 112.156 245.47 113.346ZM242.25 107.036C241.94 106.216 241.5 105.506 240.93 104.896C240.36 104.286 239.69 103.806 238.9 103.446C238.11 103.086 237.25 102.906 236.32 102.906C235.39 102.906 234.53 103.087 233.75 103.427C232.97 103.777 232.3 104.257 231.75 104.857C231.19 105.457 230.76 106.167 230.45 106.977C230.14 107.797 229.98 108.656 229.98 109.566C229.98 110.476 230.14 111.346 230.45 112.156C230.76 112.976 231.2 113.687 231.77 114.297C232.33 114.907 233.01 115.386 233.8 115.746C234.59 116.106 235.45 116.286 236.38 116.286C237.31 116.286 238.17 116.116 238.95 115.766C239.73 115.416 240.4 114.946 240.95 114.336C241.51 113.736 241.94 113.026 242.25 112.216C242.56 111.396 242.72 110.536 242.72 109.616C242.73 108.716 242.57 107.856 242.25 107.036Z" fill="white"/>
<path d="M273.33 103.176H262.63V108.366H272.12V111.356H262.63V119.016H259.35V100.196H273.33V103.176V103.176Z" fill="white"/>
<path d="M300.11 103.176H289.41V108.366H298.9V111.356H289.41V119.016H286.13V100.196H300.11V103.176Z" fill="white"/>
<path d="M326.84 103.176H316.19V108.016H325.63V110.996H316.19V116.026H326.97V119.016H312.91V100.196H326.84V103.176Z" fill="white"/>
<path d="M354 103.176H343.35V108.016H352.79V110.996H343.35V116.026H354.13V119.016H340.07V100.196H354V103.176Z" fill="white"/>
</svg>
